<svg height="479pt" viewBox="-90 0 479 479.87657" width="479pt" xmlns="http://www.w3.org/2000/svg"><path d="m273.539062 335.789062-74.539062-74.101562c-11.183594-11.164062-17.496094-26.296875-17.558594-42.097656v-134.589844h10.347656c4.417969 0 7.652344-3.992188 7.652344-8.410156v-68.441406c-.003906-4.417969-3.234375-8.148438-7.652344-8.148438h-183.746093c-4.417969 0-7.605469 3.730469-7.605469 8.148438v68.441406c0 4.417968 3.1875 8.410156 7.605469 8.410156h6.847656l-.386719 205.886719c-.03125 21.054687 8.75 41.164062 24.214844 55.453125l118.21875 109.234375c15.59375 15.632812 36.792969 24.382812 58.871094 24.300781.570312 0 1.136718-.019531 1.703125-.027344 22.910156-.386718 44.652343-10.179687 60.125-27.078125 14.59375-15.875 22.09375-36.859375 21.117187-59.074219-.945312-21.761718-9.929687-42.394531-25.214844-57.90625zm-90.101562-266.789062h-27v-53h27zm-124 0v-53h32v53zm48-53h33v53h-33zm-91 0h27v53h-27zm14.066406 274.71875.101563-54.414062 16.976562 8.921874c34.621094 18.160157 47.980469 60.9375 29.847657 95.574219l-6.867188 13.089844-20.984375-19.398437c-12.1875-11.292969-19.101563-27.160157-19.074219-43.773438zm235.367188 151.199219c-12.476563 13.589843-29.957032 21.503906-48.398438 21.914062-18.445312.414063-36.257812-6.714843-49.328125-19.734375-.074219-.074218-.148437-.148437-.226562-.21875l-85.1875-78.746094 8.867187-16.898437c22.234375-42.457031 5.863282-94.898437-36.574218-117.167969l-24.386719-12.613281.253906-133.453125h134.546875v134.59375c.078125 20.054688 8.085938 39.265625 22.277344 53.4375l74.445312 74.035156c25.898438 26.339844 27.570313 68.894532 3.710938 94.851563zm0 0"/></svg>